<svg xmlns="http://www.w3.org/2000/svg" viewBox="0 0 32 32" fill="none">
  <rect width="32" height="32" rx="5" fill="#0a0a0a"/>
  <!-- antenna spikes -->
  <polygon points="9.5,10 13.5,10 11.5,2" fill="#dc2626"/>
  <polygon points="18.5,10 22.5,10 20.5,2" fill="#dc2626"/>
  <!-- face plate -->
  <polygon points="7,10 25,10 23,30 9,30" fill="#dc2626"/>
  <!-- visor bar -->
  <polygon points="7,10 25,10 24,15 8,15" fill="#7f1d1d"/>
  <!-- left eye -->
  <polygon points="9,16 14,16 13,25 8.5,25" fill="#0a0a0a"/>
  <polygon points="9.5,17 13.5,17 12.5,24 9,24" fill="#ff3333"/>
  <!-- right eye -->
  <polygon points="18,16 23,16 23.5,25 18.5,25" fill="#0a0a0a"/>
  <polygon points="18.5,17 22.5,17 23,24 19,24" fill="#ff3333"/>
  <!-- chin -->
  <polygon points="11,27 21,27 20.5,30 11.5,30" fill="#991b1b"/>
</svg>
